<?xml version="1.0" encoding="UTF-8"?>
<svg width="99" height="99" version="1.1" viewBox="0 0 26.193751 26.193751" xmlns="http://www.w3.org/2000/svg">
<g transform="matrix(.5364 0 0 .5364 -31.022 .68147)" enable-background="new">
<circle cx="82.37" cy="23.12" r="24" fill="#d33"/>
<path d="m87.77 23.725 5.939-5.939c0.377-0.372 0.566-0.835 0.566-1.373 0-0.54-0.189-0.997-0.566-1.374l-2.747-2.747c-0.377-0.372-0.835-0.564-1.373-0.564-0.539 0-0.997 0.186-1.374 0.564l-5.939 5.939-5.939-5.939c-0.377-0.372-0.835-0.564-1.374-0.564s-0.997 0.186-1.374 0.564l-2.748 2.747c-0.377 0.378-0.566 0.835-0.566 1.374 0 0.54 0.188 0.997 0.566 1.373l5.939 5.939-5.939 5.94c-0.377 0.372-0.566 0.835-0.566 1.373 0 0.54 0.188 0.997 0.566 1.373l2.748 2.747c0.377 0.378 0.835 0.564 1.374 0.564s0.997-0.186 1.374-0.564l5.939-5.939 5.94 5.939c0.377 0.378 0.835 0.564 1.374 0.564s0.997-0.186 1.373-0.564l2.747-2.747c0.377-0.372 0.566-0.835 0.566-1.373 0-0.54-0.188-0.997-0.566-1.373l-5.939-5.94" fill="#fff"/>
</g>
</svg>
